<svg xmlns="http://www.w3.org/2000/svg" fill-rule="evenodd" stroke-linejoin="round" stroke-miterlimit="1.41" clip-rule="evenodd" viewBox="0 0 206 206"><path fill="#006b51" d="M102.54 2.83l99.72 99.71-99.72 99.72-99.71-99.72 99.71-99.71z"/><path fill="#fff" fill-rule="nonzero" d="M205.09 102.54L102.54 205.1 0 102.54 102.54 0 205.1 102.54zm-202.26 0l99.71 99.72 99.72-99.72-99.72-99.71-99.71 99.71z"/><path fill="#fff" fill-opacity=".2" fill-rule="nonzero" d="M202.26 102.54l-99.72 99.72-99.71-99.72 99.71-99.71 99.72 99.71zm-188.12 0l88.4 88.4 88.4-88.4-88.4-88.4-88.4 88.4z"/><g fill="#fff" fill-rule="nonzero"><path d="M102.1 119.01v19.66l-3.8 1.87-13.09-19.7 10.35-10.35 6.54 8.52zM86.16 103.1H66.4l-1.87 3.65 19.72 13.2 10.27-10.3-8.37-6.55zM102.1 86.15V66.42l-3.8-1.88L85.2 84.32l10.35 10.35 6.54-8.52zM86.25 102H66.47l-1.89-3.65 19.7-13.2 10.34 10.31-8.37 6.54zM103.05 119.01v19.66l3.72 1.87 13.15-19.7-10.33-10.35-6.54 8.52zM118.93 102.98h19.75l1.87 3.8-19.72 13.13-10.27-10.39 8.37-6.54zM103.05 86.15V66.42l3.72-1.88 13.15 19.78-10.33 10.35-6.54-8.52zM118.84 102.13h19.78l1.89-3.8-19.7-13.14-10.34 10.4 8.37 6.54zM102.57 111.35a8.28 8.28 0 1 1 0-16.56 8.28 8.28 0 0 1 0 16.56zm0-15.04a6.76 6.76 0 1 0 0 13.51 6.76 6.76 0 0 0 0-13.5z"/><path d="M101.77 100.25v1.5l-1.2 1.18h-1.54v-.6l2.74-2.08z"/><path d="M101.77 105.61v-1.5l-1.2-1.18h-1.54v.6l2.74 2.08zM103.26 100.25v1.5l1.2 1.18H106v-.6l-2.74-2.08z"/><path d="M103.26 105.61v-1.5l1.2-1.18H106v.6l-2.74 2.08zM103.26 103.08a.75.75 0 1 1-1.5 0 .75.75 0 0 1 1.5 0z"/></g></svg>
