<svg viewBox="0 0 256 256" xmlns="http://www.w3.org/2000/svg" fill-rule="evenodd" clip-rule="evenodd" stroke-linejoin="round" stroke-miterlimit="1.4"><path d="M128 28.3l99.7 99.7-99.7 99.7L28.3 128 128 28.3z" fill="#0586ff"/><path d="M230.5 128L128 230.5 25.5 128 128 25.5 230.5 128zm-202.2 0l99.7 99.7 99.7-99.7L128 28.3 28.3 128z" fill="#fff" fill-rule="nonzero"/><path d="M227.7 128L128 227.7 28.3 128 128 28.3l99.7 99.7zm-188.1 0l88.4 88.4 88.4-88.4L128 39.6 39.6 128z" fill="#fff" fill-opacity=".2" fill-rule="nonzero"/><g fill="#fff" fill-rule="nonzero"><path d="M127.6 148.6L107 128l20.6-20.6v6.9l-.2.4-13 13-.3.3.3.2 13 13 .2.5V148.6zM128.5 107.4L149 128l-20.5 20.5v-.1-6.7c0-.2 0-.4.2-.5l13-13 .2-.2-.2-.2a20818.4 20818.4 0 0 0-13.2-13.5v-6.9z"/><path d="M128.5 115.9l12 12-12 12.2v-.2-6.5c0-.2 0-.4.2-.5a994.3 994.3 0 0 0 5-4.9 4 4 0 0 1-.4-.2c-1.5-1.6-3-3.2-4.7-4.7a1574 1574 0 0 0-.2-7.2zM127.6 115.9v6.7l-.2.5c-1.6 1.5-3.2 3-4.7 4.7-.1 0-.2 0-.3.2l.3.2a3676.7 3676.7 0 0 0 4.9 5.1v6.8h-.2l-12-12 12.2-12.2z"/><g><path d="M77.6 148.6L57 128l20.6-20.6v6.9l-.2.4-13 13-.3.3.3.2 13 13 .2.5V148.6zM78.5 107.4L99 128l-20.5 20.5v-.1-6.7c0-.2 0-.4.2-.5l13-13 .2-.2-.2-.2a20818.4 20818.4 0 0 0-13.2-13.5v-6.9z"/><path d="M78.5 115.9l12 12-12 12.2v-.2-6.5c0-.2 0-.4.2-.5a994.3 994.3 0 0 0 5-4.9 4 4 0 0 1-.4-.2c-1.5-1.6-3-3.2-4.7-4.7a1574 1574 0 0 0-.2-7.2zM77.6 115.9v6.7l-.2.5c-1.6 1.5-3.2 3-4.7 4.7-.1 0-.2 0-.3.2l.3.2a3676.7 3676.7 0 0 0 4.9 5.1v6.8h-.2l-12-12 12.2-12.2z"/></g><g><path d="M177.6 148.6L157 128l20.6-20.6v6.9l-.2.4-13 13-.3.3.3.2 13 13 .2.5V148.6zM178.5 107.4L199 128l-20.5 20.5v-.1-6.7c0-.2 0-.4.2-.5l13-13 .2-.2-.2-.2a20818.4 20818.4 0 0 0-13.2-13.5v-6.9z"/><path d="M178.5 115.9l12 12-12 12.2v-.2-6.5c0-.2 0-.4.2-.5a994.3 994.3 0 0 0 5-4.9 4 4 0 0 1-.4-.2c-1.5-1.6-3-3.2-4.7-4.7a1574 1574 0 0 0-.2-7.2zM177.6 115.9v6.7l-.2.5c-1.6 1.5-3.2 3-4.7 4.7-.1 0-.2 0-.3.2l.3.2a3676.7 3676.7 0 0 0 4.9 5.1v6.8h-.2l-12-12 12.2-12.2z"/></g></g></svg>
