<svg xmlns="http://www.w3.org/2000/svg" fill-rule="evenodd" stroke-linejoin="round" stroke-miterlimit="1.4" clip-rule="evenodd" viewBox="0 0 206 206"><path fill="#b59700" d="M102.5 2.8l99.8 99.7-99.8 99.8-99.7-99.8 99.7-99.7z"/><path fill="#fff" fill-rule="nonzero" d="M205 102.5L102.6 205.1 0 102.5 102.5 0l102.6 102.5zm-202.2 0l99.7 99.8 99.8-99.8-99.8-99.7-99.7 99.7z"/><path fill="#fff" fill-opacity=".2" fill-rule="nonzero" d="M202.3 102.5l-99.8 99.8-99.7-99.8 99.7-99.7 99.8 99.7zm-188.2 0l88.4 88.4 88.4-88.4-88.4-88.4-88.4 88.4z"/><path fill="#fff" d="M118.2 87.5v.1l5.3 5.2v19.5l-5.2 5.2H86.7l-5.2-5.2V92.8l5.3-5.2h31.3zm-2.5 26l3.8-3.7V95.3l-3.8-3.8H89.5l-3.9 4v14.2l3.8 3.8h26.3zM96.6 101h4.5v9.1h-4.5V101zm7.5 0h4.5v9.1H104V101zm4.4-.5h-4.4v-3.3c.1-1.6 1-2.8 2.3-2.8 1.1 0 2.1 1.2 2.1 2.8v3.3zm-7.4 0h-4.5v-3.3c0-1.6 1-2.8 2.2-2.8 1.2 0 2.2 1.2 2.3 2.8v3.3z"/><g><path fill="#fff" d="M118.2 127.5v.1l5.3 5.2v19.5l-5.2 5.2H86.7l-5.2-5.2v-19.5l5.3-5.2h31.3zm-2.5 26l3.8-3.7v-14.5l-3.8-3.8H89.5l-3.9 4v14.2l3.8 3.8h26.3zM92.8 141h4.5v9.1h-4.5V141zm15 0h4.4v9.1h-4.4V141zm-7.5 0h4.5v9.1h-4.5V141zm-3-.5H93v-3.3c0-1.6 1-2.8 2.2-2.8 1.2 0 2.1 1.2 2.2 2.8v3.3zm15 0h-4.5v-3.3c0-1.6 1-2.8 2.2-2.8 1.2 0 2.1 1.2 2.2 2.8v3.3zm-7.5 0h-4.5v-3.3c0-1.6 1-2.8 2.2-2.8 1.2 0 2.2 1.2 2.3 2.8v3.3z"/></g><g><path fill="#fff" d="M118.2 47.5v.1l5.3 5.2v19.5l-5.2 5.2H86.7l-5.2-5.2V52.8l5.3-5.2h31.3zm-2.5 26l3.8-3.7V55.3l-3.8-3.8H89.5l-3.9 4v14.2l3.8 3.8h26.3zM100.4 61h4.4V70h-4.4V61zm4.4-.5h-4.5v-3.3c0-1.6 1-2.8 2.2-2.8 1.3 0 2.2 1.2 2.3 2.8v3.3z"/></g></svg>
