<svg xmlns="http://www.w3.org/2000/svg" fill-rule="evenodd" stroke-linejoin="round" stroke-miterlimit="1.41" clip-rule="evenodd" viewBox="0 0 206 206"><path fill="#b59700" d="M102.54 2.83l99.72 99.71-99.72 99.72-99.71-99.72 99.71-99.71z"/><path fill="#fff" fill-rule="nonzero" d="M205.09 102.54L102.54 205.1 0 102.54 102.54 0 205.1 102.54zm-202.26 0l99.71 99.72 99.72-99.72-99.72-99.71-99.71 99.71z"/><path fill="#fff" fill-opacity=".2" fill-rule="nonzero" d="M202.26 102.54l-99.72 99.72-99.71-99.72 99.71-99.71 99.72 99.71zm-188.12 0l88.4 88.4 88.4-88.4-88.4-88.4-88.4 88.4z"/><g fill="#fff"><path d="M108.94 99.34h25.6v25.6l-6.4 6.4h-51.2l-6.4-6.4v-25.6h25.6v6.4h12.8v-6.4zM96.14 92.94h-25.6V76.3l12.8-2.56h38.4l12.8 2.56v16.64h-25.6s-.05-6.4-6.4-6.4c-6.33 0-6.4 6.39-6.4 6.4z"/></g></svg>
