<svg viewBox="0 0 206 206" xmlns="http://www.w3.org/2000/svg" fill-rule="evenodd" clip-rule="evenodd" stroke-linejoin="round" stroke-miterlimit="1.4"><path d="M102.5 2.8l99.8 99.7-99.8 99.8-99.7-99.8 99.7-99.7z" fill="#b91717"/><path d="M205 102.5L102.6 205.1 0 102.5 102.5 0l102.6 102.5zm-202.2 0l99.7 99.8 99.8-99.8-99.8-99.7-99.7 99.7z" fill="#fff" fill-rule="nonzero"/><path d="M202.3 102.5l-99.8 99.8-99.7-99.8 99.7-99.7 99.8 99.7zm-188.2 0l88.4 88.4 88.4-88.4-88.4-88.4-88.4 88.4z" fill="#fff" fill-opacity=".2" fill-rule="nonzero"/><path d="M107.9 73.7v93.4s-4.9 13.3-5.4 13.3c-.4 0-5.3-13.3-5.3-13.3V73.7h4.7v96c0 1 1.2.9 1.3 0v-96h4.7zm-14.2-5.3h-3.2s-1.7-1-2.6-1h-1.4v6.3H88c1 0 2.6-1.6 2.6-1.6h2.7V69l.5-.5zm20.8 0s1.8-1 2.7-1h1.3v6.3h-1.3c-1 0-2.7-1.6-2.7-1.6H112V69l-.5-.5h3.1zm-4 3.7h-16v-2.6s5.3 0 5.4-5.4v-5.3h5.3v5.3c0 5.3 5.3 5.4 5.3 5.4V72zm-10.6-17h5.3v2.1H100v-2.1zm0-3.8h5.3v2.2H100v-2.2zm0-3.7h5.3v2.1H100v-2zm0-3.7h5.3V46H100V44zm0-3.8h5.3v2.2H100V40zm0-3.7h5.3v2.1H100v-2zm0-4.8h5.3v3.2H100v-3.2zm-2.2-7h9.7V30h-9.7v-5.3zM83.9 82.3v58.3s-3 8.3-3.4 8.3c-.2 0-3.3-8.3-3.3-8.3V82.3h3v60c0 .5.7.5.8 0v-60h2.9zM75 78.9h-2s-1-.6-1.6-.6h-.9v4h.9c.6 0 1.6-1 1.6-1h1.7v-2l.3-.4zm13 0s1.1-.6 1.7-.6h.8v4h-.8c-.6 0-1.7-1-1.7-1h-1.6v-2l-.3-.4h2zm-2.5 2.4h-10v-1.7s3.3 0 3.4-3.3v-3.4h3.3v3.4c0 3.3 3.3 3.3 3.3 3.3v1.7zM79 70.6h3.3V72H79v-1.3zm0-2.3h3.3v1.3H79v-1.3zm0-2.4h3.3v1.4H79v-1.4zm0-2.3h3.3V65H79v-1.3zm0-2.3h3.3v1.3H79v-1.3zm0-2.4h3.3v1.4H79v-1.4zm0-3h3.3v2H79v-2zm-1.4-4.3h6V55h-6v-3.3zM127.9 82.3v58.3s-3 8.3-3.4 8.3c-.2 0-3.3-8.3-3.3-8.3V82.3h3v60c0 .5.7.5.8 0v-60h2.9zm-8.9-3.4h-2s-1-.6-1.6-.6h-.9v4h.9c.6 0 1.6-1 1.6-1h1.7v-2l.3-.4zm13 0s1.1-.6 1.7-.6h.8v4h-.8c-.6 0-1.7-1-1.7-1h-1.6v-2l-.3-.4h2zm-2.5 2.4h-10v-1.7s3.3 0 3.4-3.3v-3.4h3.3v3.4c0 3.3 3.3 3.3 3.3 3.3v1.7zM123 70.6h3.3V72H123v-1.3zm0-2.3h3.3v1.3H123v-1.3zm0-2.4h3.3v1.4H123v-1.4zm0-2.3h3.3V65H123v-1.3zm0-2.3h3.3v1.3H123v-1.3zm0-2.4h3.3v1.4H123v-1.4zm0-3h3.3v2H123v-2zm-1.4-4.3h6V55h-6v-3.3z" fill="#fff"/></svg>
