<svg xmlns="http://www.w3.org/2000/svg" fill-rule="evenodd" stroke-linejoin="round" stroke-miterlimit="1.41" clip-rule="evenodd" viewBox="0 0 206 206"><path fill="#575757" d="M102.54 2.83l99.72 99.71-99.72 99.72-99.71-99.72 99.71-99.71z"/><path fill="#fff" fill-rule="nonzero" d="M205.09 102.54L102.54 205.1 0 102.54 102.54 0 205.1 102.54zm-202.26 0l99.71 99.72 99.72-99.72-99.72-99.71-99.71 99.71z"/><path fill="#fff" fill-opacity=".2" fill-rule="nonzero" d="M202.26 102.54l-99.72 99.72-99.71-99.72 99.71-99.71 99.72 99.71zm-188.12 0l88.4 88.4 88.4-88.4-88.4-88.4-88.4 88.4z"/><path fill="#fff" d="M82.54 151.54h40l-20 20-20-20zM151.54 122.54v-40l20 20-20 20zM53.54 82.54v40l-20-20 20-20z"/><path fill="#fff" fill-rule="nonzero" d="M94.03 88.6h17.03l4.9-7.01-13.42-4.36-13.4 4.36 4.89 7zm19.75 1.94l5.27 16.23 7.83 2.27V94.9l-8.24-11.34-4.86 6.97zm-11.24 26.56l13.23-9.61-5.05-15.55H94.37l-5.05 15.55 13.22 9.6zm1.68 2.91v7.85l13.36-4.34 8.22-11.31-7.74-2.26-13.85 10.06zm-3.35 0l-13.84-10.05-7.74 2.25 8.21 11.3 13.37 4.35V120zm-9.56-29.47l-4.86-6.97-8.24 11.34v14.13l7.83-2.27 5.27-16.23z"/></svg>
