<svg viewBox="0 0 256 256" xmlns="http://www.w3.org/2000/svg" fill-rule="evenodd" clip-rule="evenodd" stroke-linejoin="round" stroke-miterlimit="1.414"><g opacity=".15" fill="#fff" fill-rule="nonzero"><path d="M256 128L128 256 0 128 128 0l128 128zM2.828 128L128 253.172 253.172 128 128 2.828 2.828 128z"/><path d="M253.172 128L128 253.172 2.828 128 128 2.828 253.172 128zm-227.716 0L128 230.544 230.544 128 128 25.456 25.456 128z" fill-opacity=".2"/></g><path d="M128 28.284L227.716 128 128 227.716 28.284 128 128 28.284z" fill="#575757"/><path d="M230.544 128L128 230.544 25.456 128 128 25.456 230.544 128zm-202.26 0L128 227.716 227.716 128 128 28.284 28.284 128z" fill="#fff" fill-rule="nonzero"/><path d="M227.716 128L128 227.716 28.284 128 128 28.284 227.716 128zm-188.118 0L128 216.402 216.402 128 128 39.598 39.598 128z" fill="#fff" fill-opacity=".2" fill-rule="nonzero"/><path d="M108 177h40l-20 20-20-20zM177 148v-40l20 20-20 20zM79 108v40l-20-20 20-20z" fill="#fff"/><path d="M119.482 114.052h17.036l4.894-7.01L128 102.684l-13.41 4.358 4.892 7.01zm19.753 1.945l5.272 16.225 7.827 2.273v-14.13L144.1 109.03l-4.864 6.967zM128 142.552l13.227-9.61-5.052-15.549h-16.35l-5.051 15.55 13.226 9.61v-.001zm1.671 2.917v7.846l13.37-4.344 8.215-11.31-7.744-2.251-13.843 10.057.002.002zm-3.342 0l-13.84-10.056-7.744 2.249 8.216 11.31 13.369 4.343v-7.846zm-9.563-29.472l-4.865-6.968-8.235 11.336v14.13l7.828-2.273 5.272-16.225z" fill="#fff" fill-rule="nonzero"/></svg>
