<svg xmlns="http://www.w3.org/2000/svg" viewBox="0 0 206 206" fill-rule="evenodd" clip-rule="evenodd" stroke-linejoin="round" stroke-miterlimit="1.4"><path d="M102.5 2.8l99.8 99.7-99.8 99.8-99.7-99.8z" fill="#b200b2"/><path d="M205 102.5L102.6 205.1 0 102.5 102.5 0l102.6 102.5zm-202.2 0l99.7 99.8 99.8-99.8-99.8-99.7-99.7 99.7z" fill="#fff" fill-rule="nonzero"/><path d="M202.3 102.5l-99.8 99.8-99.7-99.8 99.7-99.7 99.8 99.7zm-188.2 0l88.4 88.4 88.4-88.4-88.4-88.4-88.4 88.4z" fill="#fff" fill-opacity=".2" fill-rule="nonzero"/><path d="M136.4 129.5c1.3-14.1-1.2-29-10-41-6-7.4-17-9.8-26.9-9.1-8 .5-16 4-20.3 10a53.5 53.5 0 0 0-10.8 39.1c.1 2.7 1 6.3-2.4 8-3.4 2-8.9.2-9-3.7-1-5.7.4-11.4.8-17.1 1.6-13 4.6-27 15.1-37a45.9 45.9 0 0 1 55.1-3.3 43 43 0 0 1 17 24.6c2.7 10.5 4 21.2 3.1 31.9.8 4.8-7.6 7.5-10.6 3.4a8.2 8.2 0 0 1-1-5.8z" fill="#fff"/><path d="M121 128.5c.8-9.6-.6-20-6.3-28-6.6-6.8-19.6-6.4-24.9 1.8A40.3 40.3 0 0 0 84 129c1 5.8-9.1 5.4-7.8-.4 0-6.7 1-13.5 2.3-20.1 2-8.7 8.1-16.8 17-19.4 9.3-3 20.5 0 26.2 8.3 6.3 7.9 7 18.4 7.5 28 .4 3.5-.4 9-5.1 7.8a4 4 0 0 1-3-4.8z" fill="#fff"/><g fill="#fff"><path d="M112.2 121.4c.5 7.4-9.8 12.3-15.2 7.1-5.5-4.3-3.5-14.5 3.4-16 5.5-1.6 12.2 3 11.8 9z"/><path d="M103 112.2c7.4-.4 12.2 9.8 7 15.1-3.8 4.8-12.5 4.2-15.2-1.5-2.9-5.1.4-12.5 6.3-13.4l2-.2zm-1.9 9.3zm0-1.5h.1zm1.8-.4c-5 0 .7 7.5 2 2.3.6-1.3-.1-3.7-2-2.3z"/></g></svg>
