<svg viewBox="0 0 206 206" xmlns="http://www.w3.org/2000/svg" fill-rule="evenodd" clip-rule="evenodd" stroke-linejoin="round" stroke-miterlimit="1.414"><path d="M102.544 2.828l99.716 99.716-99.716 99.716-99.716-99.716 99.716-99.716z" fill="#003c63"/><path d="M205.088 102.544L102.544 205.088 0 102.544 102.544 0l102.544 102.544zm-202.26 0l99.716 99.716 99.716-99.716-99.716-99.716-99.716 99.716z" fill="#fff" fill-rule="nonzero"/><path d="M202.26 102.544l-99.716 99.716-99.716-99.716 99.716-99.716 99.716 99.716zm-188.118 0l88.402 88.402 88.402-88.402-88.402-88.402-88.402 88.402z" fill="#fff" fill-opacity=".2" fill-rule="nonzero"/><g fill="#fff" fill-rule="nonzero"><path d="M102.103 119.015v19.658l-3.804 1.871-13.085-19.704 10.346-10.346 6.543 8.52zM86.157 103.1H66.408l-1.871 3.651 19.718 13.207 10.27-10.316-8.368-6.542zM102.103 86.15V66.416l-3.804-1.872-13.085 19.78L95.56 94.67l6.543-8.52zM86.249 102.004h-19.78l-1.887-3.652 19.689-13.206L94.617 95.46l-8.368 6.543zM103.046 119.015v19.658l3.728 1.871 13.146-19.704-10.331-10.346-6.543 8.52zM118.931 102.978h19.75l1.87 3.804-19.718 13.13-10.27-10.392 8.368-6.542zM103.046 86.15V66.416l3.728-1.872 13.146 19.78-10.331 10.346-6.543-8.52zM118.84 102.126h19.78l1.886-3.804-19.688-13.13-10.347 10.391 8.369 6.543zM102.575 111.346a8.277 8.277 0 1 1 8.277-8.277 8.292 8.292 0 0 1-8.276 8.277h-.001zm0-15.032a6.756 6.756 0 1 0 0 13.51 6.756 6.756 0 0 0 0-13.51z"/><path d="M101.768 100.254v1.491l-1.202 1.187H99.03v-.593l2.74-2.085zM101.768 105.61v-1.491l-1.202-1.187H99.03v.594l2.74 2.084zM103.26 100.254v1.491l1.201 1.187h1.537v-.593l-2.739-2.085zM103.26 105.61v-1.491l1.201-1.187h1.537v.594l-2.739 2.084zM103.26 103.084a.745.745 0 1 1-1.492 0 .745.745 0 0 1 1.491 0z"/></g></svg>
