<svg viewBox="0 0 256 256" xmlns="http://www.w3.org/2000/svg" fill-rule="evenodd" clip-rule="evenodd" stroke-linejoin="round" stroke-miterlimit="1.414"><path d="M128 28.284L227.716 128 128 227.716 28.284 128 128 28.284z" fill="#003c63"/><path d="M230.544 128L128 230.544 25.456 128 128 25.456 230.544 128zm-202.26 0L128 227.716 227.716 128 128 28.284 28.284 128z" fill="#fff" fill-rule="nonzero"/><path d="M227.716 128L128 227.716 28.284 128 128 28.284 227.716 128zm-188.118 0L128 216.402 216.402 128 128 39.598 39.598 128z" fill="#fff" fill-opacity=".2" fill-rule="nonzero"/><g fill="#fff" fill-rule="nonzero"><path d="M127.559 144.47v19.658L123.755 166l-13.085-19.704 10.346-10.346 6.543 8.52zM111.613 128.555h-19.75l-1.87 3.652 19.718 13.207 10.27-10.316-8.368-6.543zM127.559 111.606V91.87L123.755 90l-13.085 19.78 10.346 10.346 6.543-8.52zM111.705 127.46h-19.78l-1.887-3.652 19.688-13.207 10.347 10.316-8.369 6.543zM128.502 144.47v19.658L132.23 166l13.146-19.704-10.331-10.346-6.543 8.52zM144.387 128.434h19.75l1.87 3.803-19.718 13.131-10.27-10.392 8.368-6.542zM128.502 111.606V91.87L132.23 90l13.146 19.78-10.331 10.346-6.543-8.52zM144.295 127.581h19.78l1.887-3.803-19.688-13.131-10.347 10.392 8.369 6.542zM128.03 136.802a8.277 8.277 0 1 1 8.278-8.277 8.292 8.292 0 0 1-8.277 8.277zm0-15.033a6.756 6.756 0 1 0 0 13.511 6.756 6.756 0 0 0 0-13.51z"/><path d="M127.224 125.71v1.491l-1.202 1.187h-1.537v-.593l2.739-2.085z"/><path d="M127.224 131.066v-1.491l-1.202-1.187h-1.537v.593l2.739 2.085zM128.715 125.71v1.491l1.202 1.187h1.537v-.593l-2.739-2.085z"/><path d="M128.715 131.066v-1.491l1.202-1.187h1.537v.593l-2.739 2.085zM128.715 128.54a.745.745 0 1 1-1.49 0 .745.745 0 0 1 1.49 0z"/></g></svg>