<svg xmlns="http://www.w3.org/2000/svg" fill-rule="evenodd" stroke-linejoin="round" stroke-miterlimit="1.41" clip-rule="evenodd" viewBox="0 0 206 206"><path fill="#003c63" d="M102.54 2.83l99.72 99.71-99.72 99.72-99.71-99.72 99.71-99.71z"/><path fill="#fff" fill-rule="nonzero" d="M205.09 102.54L102.54 205.1 0 102.54 102.54 0 205.1 102.54zm-202.26 0l99.71 99.72 99.72-99.72-99.72-99.71-99.71 99.71z"/><path fill="#fff" fill-opacity=".2" fill-rule="nonzero" d="M202.26 102.54l-99.72 99.72-99.71-99.72 99.71-99.71 99.72 99.71zm-188.12 0l88.4 88.4 88.4-88.4-88.4-88.4-88.4 88.4z"/><path fill="#fff" fill-rule="nonzero" d="M79.13 137.46l-9.11-2.45c-.83-3.1-1.63-6.1-2.48-9.2l28.06-29.9 4.05 7.5L74 129.11l.25 1.57 1.44.47 25.84-25.8 7.45 3.97c-.8 1.23-26.47 25.42-29.84 28.14zm48.03-22.74c.1 1.85-1.02 2.98-2.35 3.69-2.26 1.2-4.66 2.12-7.33 3.29l2.65-5.93-6.87-6.87-6.75-6.74-6.87-6.87a11378 11378 0 0 0-6.75-6.74c-2.27-2.28-4.59-4.53-6.71-6.74A5.1 5.1 0 0 1 89 78.06c2.16-1.06 4.38-2 6.58-2.98.08-.03.2.03.44.08l-2.6 5.79 33.73 33.77zm3.5-30.77l-14.69 14.83-9.64-9.66 14.76-14.8 9.58 9.63zm6.88-3.33a7.06 7.06 0 0 1-3 3.1l-13.12-13.11a6.88 6.88 0 0 1 3.07-2.97l.04-.02 13.01 13z"/></svg>
